<svg width="241" height="239" viewBox="0 0 241 239" fill="none" xmlns="http://www.w3.org/2000/svg">
<circle cx="126.017" cy="119.877" r="105.535" fill="#FBFBFB"></circle>
<g filter="url(#filter0_d_3035_65)">
<mask id="path-2-outside-1_3035_65" maskUnits="userSpaceOnUse" x="90.1625" y="-2.33887" width="149.632" height="159.021" fill="black">
<rect fill="white" x="90.1625" y="-2.33887" width="149.632" height="159.021"></rect>
<path d="M118.093 8.72353C118.932 4.56581 122.982 1.87553 127.14 2.71461L228.238 23.1176C232.396 23.9567 235.086 28.0074 234.247 32.1651L211.41 145.326C210.571 149.483 206.52 152.174 202.362 151.334L101.264 130.931C97.1064 130.092 94.4161 126.042 95.2552 121.884L118.093 8.72353Z"></path>
</mask>
<path d="M118.093 8.72353C118.932 4.56581 122.982 1.87553 127.14 2.71461L228.238 23.1176C232.396 23.9567 235.086 28.0074 234.247 32.1651L211.41 145.326C210.571 149.483 206.52 152.174 202.362 151.334L101.264 130.931C97.1064 130.092 94.4161 126.042 95.2552 121.884L118.093 8.72353Z" fill="#FED600"></path>
<path d="M127.14 2.71461L126.634 5.22402L227.732 25.627L228.238 23.1176L228.745 20.6082L127.646 0.205203L127.14 2.71461ZM234.247 32.1651L231.738 31.6587L208.9 144.819L211.41 145.326L213.919 145.832L236.757 32.6716L234.247 32.1651ZM202.362 151.334L202.869 148.825L101.771 128.422L101.264 130.931L100.758 133.441L201.856 153.844L202.362 151.334ZM95.2552 121.884L97.7646 122.39L120.602 9.22997L118.093 8.72353L115.583 8.2171L92.7458 121.378L95.2552 121.884ZM101.264 130.931L101.771 128.422C98.9987 127.863 97.2052 125.162 97.7646 122.39L95.2552 121.884L92.7458 121.378C91.627 126.921 95.2141 132.322 100.758 133.441L101.264 130.931ZM211.41 145.326L208.9 144.819C208.341 147.591 205.641 149.384 202.869 148.825L202.362 151.334L201.856 153.844C207.4 154.963 212.8 151.376 213.919 145.832L211.41 145.326ZM228.238 23.1176L227.732 25.627C230.504 26.1864 232.297 28.8869 231.738 31.6587L234.247 32.1651L236.757 32.6716C237.875 27.1279 234.288 21.727 228.745 20.6082L228.238 23.1176ZM127.14 2.71461L127.646 0.205203C122.103 -0.913577 116.702 2.67347 115.583 8.2171L118.093 8.72353L120.602 9.22997C121.161 6.45815 123.862 4.66463 126.634 5.22402L127.14 2.71461Z" fill="black" mask="url(#path-2-outside-1_3035_65)"></path>
<path d="M179.201 132.804C186.168 134.21 191.7 133.714 195.797 131.317C199.886 128.906 202.594 124.412 203.922 117.834L209.613 89.6083L198.134 87.2919L192.545 115.015C191.808 118.668 190.56 121.231 188.801 122.705C187.044 124.167 184.623 124.586 181.538 123.964C178.74 123.399 176.738 122.087 175.531 120.027C174.315 117.953 174.076 115.089 174.813 111.436L180.403 83.7134L169.936 81.6011L164.245 109.827C163.356 114.231 163.435 118.006 164.48 121.153C165.516 124.286 167.3 126.823 169.831 128.766C172.362 130.708 175.486 132.054 179.201 132.804Z" fill="#FC1B9F"></path>
<path d="M108.169 118.469L117.736 71.0664L127.025 72.9411L135.338 98.2201L130.335 97.4271L148.297 77.2341L157.353 79.0617L147.786 126.464L138.676 124.626L146.491 85.8985L147.546 89.9575L130.365 108.9L122.06 84.4349L124.382 83.1339L116.895 120.23L108.169 118.469Z" fill="black"></path>
<path d="M171.626 73.2523L181.193 25.8496L190.482 27.7243L198.795 53.0033L193.792 52.2103L211.754 32.0173L220.81 33.8449L211.243 81.2475L202.133 79.4089L209.948 40.6817L211.003 44.7407L193.823 63.683L185.517 39.2181L187.839 37.9171L180.352 75.0133L171.626 73.2523Z" fill="black"></path>
<path d="M119.422 62.7136L128.979 15.3574L149.069 19.4119C152.524 20.1092 155.428 21.1523 157.782 22.5413C160.135 23.9303 161.829 25.7274 162.864 27.9325C163.9 30.1261 164.098 32.8118 163.456 35.9897C163.027 38.116 162.154 39.7617 160.836 40.927C159.519 42.0923 158.042 42.9428 156.407 43.4787C154.774 44.003 153.268 44.3726 151.89 44.5875L151.124 41.8534C153.706 42.4705 155.881 43.4627 157.649 44.8299C159.418 46.197 160.682 47.8593 161.442 49.8165C162.204 51.7622 162.341 53.9427 161.853 56.3579C161.186 59.6629 159.848 62.213 157.838 64.0082C155.83 65.7919 153.395 66.924 150.532 67.4045C147.68 67.8874 144.648 67.8047 141.436 67.1563L119.422 62.7136ZM132.705 56.158L142.36 58.1065C143.55 58.3467 144.677 58.3937 145.741 58.2476C146.807 58.0899 147.735 57.6338 148.525 56.8791C149.315 56.1245 149.858 55.0134 150.154 53.5458C150.373 52.4595 150.363 51.5254 150.124 50.7436C149.899 49.9525 149.503 49.2894 148.938 48.7543C148.384 48.2216 147.721 47.7812 146.95 47.433C146.19 47.0872 145.359 46.8234 144.457 46.6415L135.011 44.7349L132.705 56.158ZM136.718 36.276L145.957 38.1405C146.754 38.3015 147.535 38.3028 148.301 38.1446C149.08 37.9772 149.762 37.6096 150.346 37.0419C150.931 36.4626 151.334 35.6298 151.553 34.5436C151.945 32.6022 151.694 31.1625 150.801 30.2246C149.911 29.2751 148.708 28.6477 147.194 28.3421L138.666 26.621L136.718 36.276Z" fill="#FC1B9F"></path>
</g>
<g filter="url(#filter1_d_3035_65)">
<mask id="path-8-outside-2_3035_65" maskUnits="userSpaceOnUse" x="1.35388" y="129.939" width="52.8308" height="55.7801" fill="black">
<rect fill="white" x="1.35388" y="129.939" width="52.8308" height="55.7801"></rect>
<path d="M6.77693 149.71C5.78133 145.587 8.31663 141.437 12.4397 140.441L33.1424 135.442C37.2655 134.447 41.415 136.982 42.4106 141.105L48.3032 165.508C49.2988 169.631 46.7635 173.781 42.6405 174.776L21.9377 179.775C17.8147 180.771 13.6652 178.236 12.6696 174.113L6.77693 149.71Z"></path>
</mask>
<path d="M6.77693 149.71C5.78133 145.587 8.31663 141.437 12.4397 140.441L33.1424 135.442C37.2655 134.447 41.415 136.982 42.4106 141.105L48.3032 165.508C49.2988 169.631 46.7635 173.781 42.6405 174.776L21.9377 179.775C17.8147 180.771 13.6652 178.236 12.6696 174.113L6.77693 149.71Z" fill="#FED600"></path>
<path d="M12.4397 140.441L13.0406 142.93L33.7433 137.931L33.1424 135.442L32.5415 132.954L11.8388 137.953L12.4397 140.441ZM42.4106 141.105L39.9221 141.706L45.8148 166.109L48.3032 165.508L50.7917 164.907L44.899 140.504L42.4106 141.105ZM42.6405 174.776L42.0396 172.288L21.3368 177.287L21.9377 179.775L22.5386 182.264L43.2414 177.265L42.6405 174.776ZM12.6696 174.113L15.1581 173.512L9.26541 149.109L6.77693 149.71L4.28846 150.31L10.1811 174.714L12.6696 174.113ZM21.9377 179.775L21.3368 177.287C18.5881 177.951 15.8218 176.261 15.1581 173.512L12.6696 174.113L10.1811 174.714C11.5086 180.211 17.0412 183.591 22.5386 182.264L21.9377 179.775ZM48.3032 165.508L45.8148 166.109C46.4785 168.858 44.7883 171.624 42.0396 172.288L42.6405 174.776L43.2414 177.265C48.7388 175.937 52.1192 170.405 50.7917 164.907L48.3032 165.508ZM33.1424 135.442L33.7433 137.931C36.492 137.267 39.2583 138.957 39.9221 141.706L42.4106 141.105L44.899 140.504C43.5716 135.007 38.0389 131.626 32.5415 132.954L33.1424 135.442ZM12.4397 140.441L11.8388 137.953C6.34139 139.28 2.96099 144.813 4.28846 150.31L6.77693 149.71L9.26541 149.109C8.60168 146.36 10.2919 143.594 13.0406 142.93L12.4397 140.441Z" fill="black" mask="url(#path-8-outside-2_3035_65)"></path>
<path d="M38.8806 171.362C41.0178 170.846 42.5042 169.984 43.3399 168.776C44.1714 167.566 44.3435 165.952 43.8562 163.934L41.7638 155.276L38.2426 156.126L40.2977 164.63C40.5683 165.751 40.5533 166.633 40.2526 167.276C39.9511 167.915 39.3271 168.349 38.3806 168.578C37.5223 168.785 36.7894 168.679 36.1818 168.259C35.5699 167.836 35.1286 167.064 34.858 165.944L32.8029 157.44L29.592 158.215L31.6844 166.873C32.0107 168.224 32.5259 169.273 33.2302 170.018C33.9302 170.761 34.7619 171.24 35.7255 171.454C36.6891 171.668 37.7408 171.637 38.8806 171.362Z" fill="#FC1B9F"></path>
<path d="M17.0896 176.624L13.5781 162.082L16.4279 161.394L22.062 167.396L20.5556 167.827L22.9537 159.818L25.7318 159.147L29.2433 173.689L26.4483 174.364L23.5795 162.484L24.4055 163.484L22.0632 171.04L16.5374 165.266L17.0185 164.597L19.7665 175.978L17.0896 176.624Z" fill="black"></path>
<path d="M28.9749 155.653L25.4634 141.111L28.3131 140.423L33.9473 146.425L32.4409 146.857L34.8389 138.847L37.617 138.177L41.1285 152.719L38.3336 153.394L35.4647 141.513L36.2907 142.513L33.9484 150.07L28.4227 144.295L28.9038 143.627L31.6518 155.007L28.9749 155.653Z" fill="black"></path>
<path d="M12.9593 159.52L9.45129 144.992L15.6144 143.504C16.6744 143.248 17.6251 143.161 18.4666 143.243C19.308 143.325 20.0178 143.607 20.5959 144.091C21.1732 144.57 21.5796 145.298 21.815 146.273C21.9725 146.925 21.9427 147.5 21.7255 147.999C21.5083 148.498 21.2054 148.93 20.8168 149.294C20.4274 149.654 20.0534 149.954 19.695 150.195L19.1232 149.528C19.9277 149.364 20.6672 149.358 21.3418 149.51C22.0164 149.662 22.588 149.963 23.0568 150.413C23.5247 150.859 23.8481 151.452 24.027 152.193C24.2718 153.207 24.2297 154.097 23.9007 154.863C23.5708 155.626 23.0358 156.261 22.2958 156.77C21.5593 157.278 20.6983 157.651 19.7128 157.889L12.9593 159.52ZM15.8275 155.946L18.7894 155.231C19.1546 155.143 19.4767 155.009 19.7559 154.829C20.0343 154.645 20.2349 154.396 20.3577 154.081C20.4805 153.766 20.4876 153.384 20.3789 152.934C20.2984 152.6 20.1736 152.34 20.0044 152.152C19.8378 151.959 19.6403 151.825 19.4119 151.749C19.1869 151.672 18.9435 151.635 18.6817 151.638C18.4234 151.641 18.1559 151.675 17.8794 151.742L14.9813 152.442L15.8275 155.946ZM14.3547 149.847L17.189 149.162C17.4336 149.103 17.6529 149.001 17.8469 148.857C18.0436 148.708 18.1867 148.516 18.2761 148.281C18.3647 148.042 18.3688 147.756 18.2883 147.422C18.1445 146.827 17.8861 146.456 17.5131 146.31C17.1393 146.16 16.7202 146.141 16.2557 146.253L13.6395 146.885L14.3547 149.847Z" fill="#FC1B9F"></path>
</g>
<g filter="url(#filter2_d_3035_65)">
<mask id="path-14-outside-3_3035_65" maskUnits="userSpaceOnUse" x="153.607" y="177.958" width="52.8296" height="55.7791" fill="black">
<rect fill="white" x="153.607" y="177.958" width="52.8296" height="55.7791"></rect>
<path d="M165.047 189.044C166.043 184.921 170.192 182.385 174.315 183.381L195.018 188.379C199.141 189.374 201.677 193.524 200.681 197.647L194.789 222.05C193.794 226.173 189.644 228.709 185.521 227.713L164.818 222.715C160.695 221.719 158.16 217.57 159.155 213.447L165.047 189.044Z"></path>
</mask>
<path d="M165.047 189.044C166.043 184.921 170.192 182.385 174.315 183.381L195.018 188.379C199.141 189.374 201.677 193.524 200.681 197.647L194.789 222.05C193.794 226.173 189.644 228.709 185.521 227.713L164.818 222.715C160.695 221.719 158.16 217.57 159.155 213.447L165.047 189.044Z" fill="#FED600"></path>
<path d="M174.315 183.381L173.714 185.869L194.417 190.868L195.018 188.379L195.619 185.891L174.916 180.892L174.315 183.381ZM200.681 197.647L198.193 197.046L192.301 221.45L194.789 222.05L197.278 222.651L203.17 198.248L200.681 197.647ZM185.521 227.713L186.122 225.225L165.419 220.226L164.818 222.715L164.218 225.203L184.921 230.202L185.521 227.713ZM159.155 213.447L161.644 214.048L167.536 189.644L165.047 189.044L162.559 188.443L156.667 212.846L159.155 213.447ZM164.818 222.715L165.419 220.226C162.671 219.563 160.98 216.797 161.644 214.048L159.155 213.447L156.667 212.846C155.34 218.344 158.72 223.876 164.218 225.203L164.818 222.715ZM194.789 222.05L192.301 221.45C191.637 224.198 188.871 225.889 186.122 225.225L185.521 227.713L184.921 230.202C190.418 231.529 195.951 228.149 197.278 222.651L194.789 222.05ZM195.018 188.379L194.417 190.868C197.166 191.531 198.856 194.297 198.193 197.046L200.681 197.647L203.17 198.248C204.497 192.75 201.116 187.218 195.619 185.891L195.018 188.379ZM174.315 183.381L174.916 180.892C169.419 179.565 163.886 182.945 162.559 188.443L165.047 189.044L167.536 189.644C168.199 186.896 170.966 185.205 173.714 185.869L174.315 183.381Z" fill="black" mask="url(#path-14-outside-3_3035_65)"></path>
<path d="M183.734 222.961C185.871 223.477 187.587 223.388 188.882 222.695C190.174 221.997 191.063 220.639 191.551 218.622L193.64 209.963L190.118 209.112L188.067 217.617C187.796 218.738 187.38 219.516 186.819 219.951C186.259 220.382 185.506 220.484 184.559 220.255C183.701 220.048 183.097 219.619 182.748 218.968C182.397 218.312 182.356 217.424 182.627 216.304L184.679 207.799L181.468 207.024L179.379 215.683C179.052 217.034 179.033 218.202 179.319 219.187C179.603 220.168 180.125 220.973 180.884 221.603C181.644 222.233 182.594 222.686 183.734 222.961Z" fill="#FC1B9F"></path>
<path d="M161.943 217.698L165.454 203.156L168.303 203.844L170.578 211.756L169.041 211.452L174.829 205.42L177.607 206.091L174.096 220.633L171.301 219.958L174.17 208.077L174.448 209.344L168.916 214.999L166.634 207.339L167.367 206.964L164.62 218.345L161.943 217.698Z" fill="black"></path>
<path d="M182.088 204.46L185.599 189.918L188.449 190.606L190.723 198.518L189.186 198.214L194.974 192.182L197.752 192.852L194.241 207.395L191.446 206.72L194.315 194.839L194.593 196.106L189.061 201.761L186.779 194.101L187.512 193.726L184.765 205.106L182.088 204.46Z" fill="black"></path>
<path d="M166.072 200.594L169.58 186.066L175.743 187.554C176.803 187.81 177.689 188.167 178.4 188.624C179.111 189.081 179.614 189.656 179.908 190.35C180.203 191.04 180.233 191.872 179.997 192.847C179.84 193.5 179.551 193.998 179.13 194.343C178.709 194.688 178.242 194.934 177.73 195.08C177.219 195.223 176.75 195.32 176.321 195.37L176.116 194.516C176.907 194.737 177.568 195.069 178.099 195.512C178.63 195.956 179.001 196.484 179.213 197.098C179.426 197.709 179.443 198.384 179.264 199.125C179.019 200.139 178.575 200.912 177.933 201.443C177.292 201.971 176.526 202.293 175.635 202.408C174.748 202.524 173.811 202.463 172.826 202.225L166.072 200.594ZM170.255 198.723L173.217 199.438C173.582 199.526 173.93 199.554 174.261 199.521C174.592 199.485 174.884 199.355 175.137 199.131C175.39 198.907 175.571 198.569 175.68 198.119C175.76 197.786 175.768 197.497 175.703 197.253C175.643 197.005 175.529 196.796 175.36 196.624C175.195 196.453 174.995 196.309 174.761 196.192C174.53 196.076 174.276 195.985 174 195.918L171.101 195.219L170.255 198.723ZM171.728 192.623L174.562 193.308C174.807 193.367 175.048 193.376 175.287 193.336C175.53 193.294 175.745 193.188 175.932 193.019C176.12 192.847 176.254 192.594 176.334 192.261C176.478 191.666 176.418 191.218 176.152 190.917C175.888 190.613 175.524 190.405 175.059 190.293L172.443 189.662L171.728 192.623Z" fill="#FC1B9F"></path>
</g>
<defs>
<filter id="filter0_d_3035_65" x="88.5414" y="0" width="152.42" height="162.049" filterUnits="userSpaceOnUse" color-interpolation-filters="sRGB">
<feFlood flood-opacity="0" result="BackgroundImageFix"></feFlood>
<feColorMatrix in="SourceAlpha" type="matrix" values="0 0 0 0 0 0 0 0 0 0 0 0 0 0 0 0 0 0 127 0" result="hardAlpha"></feColorMatrix>
<feOffset dy="4"></feOffset>
<feGaussianBlur stdDeviation="2"></feGaussianBlur>
<feComposite in2="hardAlpha" operator="out"></feComposite>
<feColorMatrix type="matrix" values="0 0 0 0 0 0 0 0 0 0 0 0 0 0 0 0 0 0 0.1 0"></feColorMatrix>
<feBlend mode="normal" in2="BackgroundImageFix" result="effect1_dropShadow_3035_65"></feBlend>
<feBlend mode="normal" in="SourceGraphic" in2="effect1_dropShadow_3035_65" result="shape"></feBlend>
</filter>
<filter id="filter1_d_3035_65" x="0" y="132.666" width="55.0802" height="57.8867" filterUnits="userSpaceOnUse" color-interpolation-filters="sRGB">
<feFlood flood-opacity="0" result="BackgroundImageFix"></feFlood>
<feColorMatrix in="SourceAlpha" type="matrix" values="0 0 0 0 0 0 0 0 0 0 0 0 0 0 0 0 0 0 127 0" result="hardAlpha"></feColorMatrix>
<feOffset dy="4"></feOffset>
<feGaussianBlur stdDeviation="2"></feGaussianBlur>
<feComposite in2="hardAlpha" operator="out"></feComposite>
<feColorMatrix type="matrix" values="0 0 0 0 0 0 0 0 0 0 0 0 0 0 0 0 0 0 0.1 0"></feColorMatrix>
<feBlend mode="normal" in2="BackgroundImageFix" result="effect1_dropShadow_3035_65"></feBlend>
<feBlend mode="normal" in="SourceGraphic" in2="effect1_dropShadow_3035_65" result="shape"></feBlend>
</filter>
<filter id="filter2_d_3035_65" x="152.379" y="180.604" width="55.0795" height="57.8867" filterUnits="userSpaceOnUse" color-interpolation-filters="sRGB">
<feFlood flood-opacity="0" result="BackgroundImageFix"></feFlood>
<feColorMatrix in="SourceAlpha" type="matrix" values="0 0 0 0 0 0 0 0 0 0 0 0 0 0 0 0 0 0 127 0" result="hardAlpha"></feColorMatrix>
<feOffset dy="4"></feOffset>
<feGaussianBlur stdDeviation="2"></feGaussianBlur>
<feComposite in2="hardAlpha" operator="out"></feComposite>
<feColorMatrix type="matrix" values="0 0 0 0 0 0 0 0 0 0 0 0 0 0 0 0 0 0 0.1 0"></feColorMatrix>
<feBlend mode="normal" in2="BackgroundImageFix" result="effect1_dropShadow_3035_65"></feBlend>
<feBlend mode="normal" in="SourceGraphic" in2="effect1_dropShadow_3035_65" result="shape"></feBlend>
</filter>
</defs>
</svg>
