<svg width="75" height="75" viewBox="0 0 75 75" fill="none" xmlns="http://www.w3.org/2000/svg">
<circle cx="37.5" cy="37.5" r="37.5" fill="#1A1A1A"></circle>
<path d="M55.8308 30.4688C56.4154 30.3281 57 29.7656 57 29.0625V16.4062C57 15.9844 56.8538 15.5625 56.4154 15.2813C55.9769 15 55.6846 15 55.2462 15C43.9923 17.8125 32.0077 17.8125 20.7538 15C20.3154 15 19.8769 15 19.5846 15.2813C19.1462 15.5625 19 15.9844 19 16.4062V29.0625C19 29.7656 19.4385 30.3281 20.1692 30.4688C20.7538 30.6094 21.3385 30.75 21.9231 30.8906V36.5156C21.4846 36.375 21.1923 36.375 20.7538 36.2344C20.3154 36.0938 19.8769 36.2344 19.4385 36.5156C19.1462 36.6563 19 37.0781 19 37.5V41.7188C19 41.8594 19 41.8594 19 42V42.1406C19 42.2812 19.1462 42.4219 19.2923 42.5625C19.2923 42.5625 19.2923 42.5625 19.4385 42.7031C19.5846 42.8438 19.5846 42.8437 19.7308 42.9844L34.7846 50.5781L21.1923 57.4688C20.4615 57.75 20.3154 58.5938 20.6077 59.2969C20.9 59.7188 21.3385 60 21.9231 60C22.2154 60 22.3615 60 22.6538 59.8594L38 52.125L53.3462 59.8594C53.6385 60 53.7846 60 54.0769 60C54.6615 60 55.1 59.7188 55.3923 59.2969C55.8308 58.5938 55.5385 57.75 54.8077 57.4688L41.2154 50.5781L56.2692 42.9844C56.4154 42.9844 56.5615 42.8438 56.5615 42.7031C56.5615 42.7031 56.5615 42.7031 56.7077 42.5625C56.8538 42.4219 56.8538 42.2812 57 42.1406V42C57 41.8594 57 41.8594 57 41.7188V37.5C57 37.0781 56.8538 36.6562 56.4154 36.375C56.1231 36.0937 55.6846 36.0938 55.2462 36.0938C54.8077 36.2344 54.5154 36.2344 54.0769 36.375V30.75C54.6615 30.6094 55.2462 30.6094 55.8308 30.4688ZM29.6692 44.6719C32.4462 44.9531 35.2231 45.0937 38 45.0937C40.7769 45.0937 43.5538 44.9531 46.3308 44.6719L38 48.8906L29.6692 44.6719ZM51.1538 36.9375C42.5308 38.4844 33.4692 38.4844 24.8462 36.9375V31.3125C29.2308 32.0156 33.6154 32.4375 38 32.4375C42.3846 32.4375 46.7692 32.0156 51.1538 31.3125V36.9375Z" fill="black"></path>
<path d="M55.8308 30.4688C56.4154 30.3281 57 29.7656 57 29.0625V16.4062C57 15.9844 56.8538 15.5625 56.4154 15.2813C55.9769 15 55.6846 15 55.2462 15C43.9923 17.8125 32.0077 17.8125 20.7538 15C20.3154 15 19.8769 15 19.5846 15.2813C19.1462 15.5625 19 15.9844 19 16.4062V29.0625C19 29.7656 19.4385 30.3281 20.1692 30.4688C20.7538 30.6094 21.3385 30.75 21.9231 30.8906V36.5156C21.4846 36.375 21.1923 36.375 20.7538 36.2344C20.3154 36.0938 19.8769 36.2344 19.4385 36.5156C19.1462 36.6563 19 37.0781 19 37.5V41.7188C19 41.8594 19 41.8594 19 42V42.1406C19 42.2812 19.1462 42.4219 19.2923 42.5625C19.2923 42.5625 19.2923 42.5625 19.4385 42.7031C19.5846 42.8438 19.5846 42.8437 19.7308 42.9844L34.7846 50.5781L21.1923 57.4688C20.4615 57.75 20.3154 58.5938 20.6077 59.2969C20.9 59.7188 21.3385 60 21.9231 60C22.2154 60 22.3615 60 22.6538 59.8594L38 52.125L53.3462 59.8594C53.6385 60 53.7846 60 54.0769 60C54.6615 60 55.1 59.7188 55.3923 59.2969C55.8308 58.5938 55.5385 57.75 54.8077 57.4688L41.2154 50.5781L56.2692 42.9844C56.4154 42.9844 56.5615 42.8438 56.5615 42.7031C56.5615 42.7031 56.5615 42.7031 56.7077 42.5625C56.8538 42.4219 56.8538 42.2812 57 42.1406V42C57 41.8594 57 41.8594 57 41.7188V37.5C57 37.0781 56.8538 36.6562 56.4154 36.375C56.1231 36.0937 55.6846 36.0938 55.2462 36.0938C54.8077 36.2344 54.5154 36.2344 54.0769 36.375V30.75C54.6615 30.6094 55.2462 30.6094 55.8308 30.4688ZM29.6692 44.6719C32.4462 44.9531 35.2231 45.0937 38 45.0937C40.7769 45.0937 43.5538 44.9531 46.3308 44.6719L38 48.8906L29.6692 44.6719ZM51.1538 36.9375C42.5308 38.4844 33.4692 38.4844 24.8462 36.9375V31.3125C29.2308 32.0156 33.6154 32.4375 38 32.4375C42.3846 32.4375 46.7692 32.0156 51.1538 31.3125V36.9375Z" fill="url(#paint0_linear_25_33)"></path>
<defs>
<linearGradient id="paint0_linear_25_33" x1="15.9659" y1="5.41861" x2="5.4279" y2="21.0609" gradientUnits="userSpaceOnUse">
<stop stop-color="#EFAE02"></stop>
<stop offset="1" stop-color="#E61E70"></stop>
</linearGradient>
</defs>
</svg>
